<svg width="20" height="14" viewBox="0 0 20 14" fill="none" xmlns="http://www.w3.org/2000/svg">
<path d="M6.9828 11.3272L6.62924 10.9737L2.02245 6.36686C1.85301 6.20461 1.62687 6.1149 1.39218 6.11694C1.1562 6.11899 0.930471 6.21364 0.763604 6.38051C0.596737 6.54738 0.502085 6.77311 0.500034 7.00908C0.497995 7.24377 0.58771 7.46992 0.749962 7.63936L6.3465 13.2359C6.34651 13.2359 6.34653 13.2359 6.34655 13.2359C6.51532 13.4046 6.74418 13.4994 6.9828 13.4994C7.22142 13.4994 7.45027 13.4046 7.61904 13.2359L6.9828 11.3272ZM6.9828 11.3272L7.33635 10.9737L17.5465 0.763508L6.9828 11.3272ZM18.819 0.763401C18.819 0.763437 18.8191 0.763472 18.8191 0.763508C18.9878 0.932272 19.0825 1.1611 19.0825 1.3997C19.0825 1.63833 18.9877 1.86718 18.819 2.03595C18.819 2.03596 18.819 2.03598 18.819 2.036L7.6191 13.2359L18.1828 0C18.554 0 18.9101 0.147442 19.1726 0.409901L18.819 0.763401ZM18.819 0.763401C18.6502 0.594744 18.4214 0.5 18.1828 0.5C17.9442 0.5 17.7153 0.594764 17.5466 0.763455L18.819 0.763401Z" fill="white" stroke="white"/>
</svg>
